<svg xmlns="http://www.w3.org/2000/svg" width="795" height="314" viewBox="0 0 795 314" version="1.1"><path d="M 405 67 L 405 73 411 73 L 417 73 417 67 L 417 61 411 61 L 405 61 405 67 M 406 67 L 406 72 411 72 L 416 72 416 67 L 416 62 411 62 L 406 62 406 67 M 378.484 75.016 L 374.562 79.033 378.781 83.252 L 383 87.471 387.131 83.340 L 391.262 79.209 387.964 75.104 C 386.150 72.847, 384.157 71, 383.536 71 C 382.914 71, 380.641 72.807, 378.484 75.016 M 433.607 74.891 L 429.808 78.781 433.520 82.891 C 435.562 85.151, 437.579 87, 438.002 87 C 439.166 87, 446 79.715, 446 78.475 C 446 77.131, 439.771 71, 438.405 71 C 437.856 71, 435.696 72.751, 433.607 74.891 M 380 75.500 L 376.571 79.038 380.071 82.538 L 383.571 86.038 387 82.500 L 390.429 78.962 386.929 75.462 L 383.429 71.962 380 75.500 M 435 75.500 L 431.571 79.038 435.071 82.538 L 438.571 86.038 442 82.500 L 445.429 78.962 441.929 75.462 L 438.429 71.962 435 75.500 M 405.500 78.497 C 407.774 79.267, 420.369 79.706, 418.500 78.950 C 417.400 78.505, 413.800 78.144, 410.500 78.149 C 407.200 78.154, 404.950 78.310, 405.500 78.497 M 395.390 82.638 C 390.388 86.030, 387.508 89.410, 384.900 94.945 C 383.167 98.625, 382.889 100.692, 383.286 106.945 C 383.549 111.100, 384.074 115.432, 384.452 116.571 C 385.005 118.235, 384.352 119.163, 381.125 121.299 C 372.165 127.228, 369.059 139.293, 373.911 149.317 C 377.750 157.247, 383.893 161.234, 394.250 162.518 L 400 163.230 400 156.615 L 400 150 394.923 150 C 390.645 150, 389.386 149.540, 386.923 147.077 C 383.728 143.882, 383.055 139.169, 385.139 134.595 C 386.527 131.549, 391.594 129, 396.262 129 C 399.686 129, 399.728 128.947, 400.338 123.792 C 401.166 116.803, 405.191 112.545, 410.972 112.545 C 414.247 112.545, 415.656 113.235, 418.946 116.447 L 422.941 120.348 427.182 115.531 C 429.514 112.881, 433.240 109.887, 435.461 108.878 C 442.912 105.494, 453.083 106.980, 458.869 112.298 C 461.712 114.911, 465.976 123.566, 465.990 126.750 C 465.999 128.837, 466.443 129, 472.127 129 L 478.254 129 477.780 124.067 C 477.142 117.426, 472.644 108.876, 467.020 103.616 C 460.820 97.816, 452.708 94.816, 443.296 94.843 C 436.911 94.860, 436.017 94.630, 435.443 92.821 C 434.541 89.979, 428.213 83.162, 424.875 81.435 C 420.299 79.069, 420.410 79.807, 425.100 82.936 C 427.520 84.550, 431.137 88.231, 433.138 91.114 L 436.777 96.357 442.917 96.107 C 452.010 95.736, 460.513 98.862, 466.540 104.790 C 471.734 109.900, 475.516 117.041, 476.581 123.750 L 477.256 128 472.128 128 C 467.640 128, 467 127.747, 467 125.968 C 467 122.712, 464.513 117.654, 460.875 113.510 C 451.808 103.184, 436.029 103.298, 427.090 113.756 L 423.227 118.276 419.349 115.160 C 417.217 113.447, 414.128 111.789, 412.486 111.477 C 406.082 110.260, 399.005 117.227, 399.002 124.750 C 399 127.945, 398.923 128, 394.400 128 C 390.502 128, 389.281 128.519, 386.400 131.400 C 378.633 139.167, 383.767 151, 394.904 151 L 399 151 399 156.116 L 399 161.233 392.521 160.820 C 384.577 160.315, 378.830 156.729, 375.327 150.093 C 370.157 140.300, 373.627 126.647, 382.627 121.373 L 386.854 118.895 385.311 115.203 C 384.224 112.600, 383.904 109.442, 384.226 104.505 C 384.913 93.994, 388.557 88.019, 397.716 82.389 C 399.797 81.109, 401 80.048, 400.390 80.031 C 399.779 80.014, 397.529 81.187, 395.390 82.638 M 401.241 91.995 C 396.934 94.620, 394.008 99.603, 394.004 104.318 L 394 108.136 396.767 106.166 C 398.288 105.083, 401.101 103.482, 403.017 102.608 C 405.250 101.590, 405.603 101.233, 404 101.613 C 402.625 101.939, 400.038 103.044, 398.250 104.069 C 395.028 105.917, 395 105.915, 395 103.852 C 395 100.360, 399.013 94.387, 402.859 92.158 C 404.861 90.996, 406.050 90.037, 405.500 90.027 C 404.950 90.016, 403.033 90.902, 401.241 91.995 M 422.085 95.085 L 426.321 99.321 424.068 101.146 C 422.325 102.557, 421.370 102.733, 419.855 101.922 C 418.777 101.345, 417.215 101.014, 416.384 101.187 C 415.553 101.359, 416.516 102.008, 418.523 102.628 C 421.750 103.625, 422.453 103.509, 424.594 101.628 L 427.014 99.500 424.430 96.244 C 423.008 94.453, 420.946 92.506, 419.847 91.918 C 418.748 91.330, 419.755 92.755, 422.085 95.085 M 366 106 L 366 112 372 112 L 378 112 378 106 L 378 100 372 100 L 366 100 366 106 M 367 106 L 367 111 372 111 L 377 111 377 106 L 377 101 372 101 L 367 101 367 106 M 431.500 118.403 C 429.850 119.131, 427.603 120.801, 426.507 122.113 L 424.514 124.500 427.007 122.412 C 432.896 117.479, 442.372 116.701, 447.864 120.699 C 452.172 123.834, 455.210 130.737, 454.489 135.750 L 453.877 140 458.189 140.077 C 465.285 140.203, 469.992 142.145, 473.391 146.347 C 476.147 149.756, 476.498 150.913, 476.482 156.547 C 476.468 161.361, 475.965 163.582, 474.410 165.701 C 466.575 176.385, 447.858 172.869, 445.387 160.250 L 444.750 157 449.714 157 C 454.040 157, 454.826 157.322, 455.818 159.500 C 456.705 161.446, 457.703 162, 460.324 162 C 466.443 162, 469.122 156.054, 464.811 152.039 C 462.726 150.096, 461.405 150, 436.811 150 L 411 150 411 145 L 411 140 426 140 C 439.667 140, 441.178 139.822, 443 138 C 444.100 136.900, 445 135.100, 445 134 C 445 131.255, 441.513 128, 438.571 128 C 435.756 128, 432.993 130.397, 433.015 132.821 C 433.025 133.969, 433.428 133.709, 434.288 132 C 436.095 128.411, 440.377 128.120, 442.552 131.440 C 444.103 133.807, 444.108 134.187, 442.609 136.474 C 441.016 138.905, 440.720 138.953, 425.744 139.224 L 410.500 139.500 410.200 145.250 L 409.900 151 434.885 151 C 448.627 151, 461.012 151.434, 462.407 151.965 C 465.406 153.105, 466.813 157.315, 464.947 159.564 C 463.045 161.856, 457.732 161.028, 456.513 158.250 C 455.650 156.283, 454.785 156, 449.632 156 L 443.738 156 444.323 159.606 C 445.611 167.541, 452.322 173.286, 460.305 173.286 C 471.967 173.286, 479.301 164.738, 477.725 152.983 C 476.663 145.072, 468.935 139, 459.927 139 L 455.486 139 455.796 134.750 C 456.698 122.394, 443.134 113.267, 431.500 118.403 M 423.035 126.934 C 422.466 127.998, 422.052 130.136, 422.115 131.684 C 422.219 134.223, 422.298 134.152, 422.922 130.966 C 423.303 129.022, 423.953 126.885, 424.366 126.216 C 424.780 125.547, 424.882 125, 424.594 125 C 424.306 125, 423.605 125.870, 423.035 126.934 M 58 217.691 C 58 220.193, 65.410 246.271, 65.793 245.120 C 65.974 244.579, 64.519 238.324, 62.561 231.220 C 60.602 224.116, 59 218.038, 59 217.712 C 59 217.387, 60.688 216.944, 62.750 216.728 L 66.500 216.336 62.250 216.168 C 58.859 216.034, 58 216.342, 58 217.691 M 83.163 222.250 C 79.897 232.891, 79.898 236.022, 83.163 226.250 C 86.071 217.548, 86.419 217, 89.030 217 C 91.611 217, 91.956 217.508, 93.955 224.250 C 96.900 234.179, 100.135 243.155, 99.451 239.500 C 99.142 237.850, 97.479 231.887, 95.756 226.250 L 92.622 216 88.851 216 C 85.097 216, 85.072 216.027, 83.163 222.250 M 115.297 216.731 C 118.305 217.044, 118.988 217.477, 118.580 218.813 C 116.862 224.445, 112.937 241.270, 113.264 241.597 C 113.758 242.091, 120 219.912, 120 217.662 C 120 216.347, 119.113 216.035, 115.750 216.168 L 111.500 216.336 115.297 216.731 M 128 238.500 L 128 261 141 261 L 154 261 154 257.500 L 154 254 147.250 253.986 C 143.537 253.979, 139.488 253.701, 138.250 253.370 C 136.900 253.008, 136 253.213, 136 253.883 C 136 254.615, 138.842 255, 144.250 255 C 152.383 255, 152.500 255.035, 152.500 257.500 L 152.500 260 140.750 260 L 129 260 129 238.500 L 129 217 140.829 217 C 152.454 217, 152.657 217.039, 152.579 219.250 C 152.505 221.353, 151.944 221.538, 144 222.082 L 135.500 222.665 144.500 222.582 L 153.500 222.500 153.813 219.250 L 154.127 216 141.063 216 L 128 216 128 238.500 M 173.502 217.750 C 171.511 222.642, 168.049 233.383, 168.362 233.696 C 168.559 233.892, 170.070 230.329, 171.720 225.777 L 174.720 217.500 179.110 217.217 L 183.500 216.934 185.937 223.446 C 189.101 231.901, 189.817 231.215, 186.813 222.607 L 184.507 216 179.360 216 C 175.397 216, 174.050 216.402, 173.502 217.750 M 203 219.448 L 203 222.895 208.250 223.198 L 213.500 223.500 213.772 242.250 L 214.044 261 218.022 261 L 222 261 222 242 L 222 223 227.500 223 L 233 223 233 219.500 L 233 216 218 216 L 203 216 203 219.448 M 240 238.500 L 240 261 244.250 260.832 L 248.500 260.664 244.750 260.272 L 241 259.879 241 238.500 L 241 217.121 244.750 216.728 L 248.500 216.336 244.250 216.168 L 240 216 240 238.500 M 268 225.465 L 268 234.930 257.750 235.254 L 247.500 235.578 258.250 235.789 L 269 236 269 226.500 L 269 217 272.500 217 L 276 217 276 238.500 L 276 260 272.500 260 L 269 260 269 250.500 L 269 241 258.250 241.211 L 247.500 241.422 257.750 241.746 L 268 242.070 268 251.535 L 268 261 272.500 261 L 277 261 277 238.500 L 277 216 272.500 216 L 268 216 268 225.465 M 288 238.500 L 288 261 301 261 L 314 261 314 257.500 L 314 254 306.250 253.882 C 301.988 253.816, 298.163 253.816, 297.750 253.882 C 297.337 253.947, 297 251.545, 297 248.544 L 297 243.088 304.250 242.794 L 311.500 242.500 311.810 238.750 L 312.121 235 304.560 235 L 297 235 297 229 L 297 223 305.500 223 L 314 223 314 219.500 L 314 216 301 216 L 288 216 288 238.500 M 323.747 216.587 C 323.336 216.997, 323 227.158, 323 239.167 L 323 261 327.500 261 L 332 261 332 251.500 C 332 242.762, 332.156 242, 333.942 242 C 335.335 242, 337.461 244.681, 341.474 251.500 L 347.065 261 351.533 261 C 353.990 261, 356 260.617, 356 260.149 C 356 259.681, 353.459 255.375, 350.354 250.581 L 344.708 241.865 348.280 238.920 C 352.977 235.049, 354.516 230.453, 352.910 225.095 C 350.699 217.715, 348.444 216.547, 335.669 216.170 C 329.522 215.989, 324.157 216.176, 323.747 216.587 M 398.489 217.168 C 398.197 217.929, 398.080 227.990, 398.229 239.526 L 398.500 260.500 408.500 260.562 L 418.500 260.624 409.250 260.275 L 400 259.925 400 238.329 L 400 216.733 409.750 217.205 C 424.953 217.942, 431.609 221.923, 433.894 231.646 C 434.536 234.380, 434.828 234.792, 434.900 233.066 C 435.090 228.441, 431.111 222.149, 426.154 219.239 C 421.978 216.787, 420.347 216.469, 410.260 216.146 C 401.363 215.860, 398.909 216.073, 398.489 217.168 M 454.499 217.002 C 453.478 218.654, 448.978 232.311, 449.336 232.670 C 449.519 232.852, 450.982 229.514, 452.588 225.251 L 455.508 217.500 460.271 217.194 C 465.015 216.890, 465.043 216.907, 466.947 221.194 C 469.207 226.284, 469.687 224.887, 467.487 219.622 C 466.011 216.090, 465.838 216, 460.546 216 C 457.560 216, 454.839 216.451, 454.499 217.002 M 493.500 217.403 C 489.038 219.372, 486.815 222.411, 486.327 227.209 C 485.573 234.624, 488.487 237.757, 500.060 241.975 C 507.913 244.837, 509.435 246.132, 508.645 249.278 C 507.396 254.256, 499.047 254.006, 496.145 248.904 C 495.153 247.160, 493.706 246.041, 492.500 246.085 C 491.091 246.136, 490.932 246.328, 491.963 246.733 C 492.767 247.050, 494.845 248.814, 496.581 250.654 C 500.114 254.401, 504.078 255.034, 507.777 252.443 C 509.971 250.907, 510.665 247.551, 509.235 245.390 C 508.191 243.812, 503.294 241.526, 497.736 240.022 C 494.528 239.153, 491.961 237.581, 489.876 235.206 C 487.207 232.166, 486.854 231.128, 487.316 227.683 C 487.669 225.048, 488.882 222.656, 490.878 220.661 C 493.410 218.128, 494.874 217.564, 499.846 217.205 C 506.699 216.709, 511.825 218.109, 514.766 221.279 C 518.165 224.942, 517.990 227.201, 514.231 228.199 C 511.460 228.935, 510.622 228.712, 508.731 226.735 C 507.504 225.452, 507.063 225.134, 507.750 226.030 C 508.438 226.925, 509 228.185, 509 228.829 C 509 229.473, 509.833 230, 510.851 230 C 514.050 230, 519 227.861, 519 226.479 C 519 224.525, 514.187 219.148, 510.931 217.464 C 507.430 215.654, 497.541 215.619, 493.500 217.403 M 527 238.500 L 527 261.110 531.750 260.805 L 536.500 260.500 536.789 251.750 L 537.078 243 545.539 243 L 554 243 554 252 L 554 261 559 261 L 564 261 564 238.445 L 564 215.890 559.250 216.195 L 554.500 216.500 554.211 225.250 L 553.922 234 545.500 234 L 537.078 234 536.789 225.250 L 536.500 216.500 531.750 216.195 L 527 215.890 527 238.500 M 574.448 217.276 C 574.178 217.978, 574.080 227.990, 574.229 239.526 L 574.500 260.500 584.776 260.785 C 597.550 261.140, 603.191 259.180, 605.534 253.573 C 606.340 251.643, 606.959 249.262, 606.910 248.282 C 606.860 247.302, 606.372 248.075, 605.825 250 C 603.616 257.770, 598.979 260, 585.032 260 L 575 260 575 238.384 L 575 216.767 584.973 217.168 C 596.323 217.624, 599.624 219.189, 601.694 225.094 C 602.350 226.967, 602.913 227.734, 602.944 226.797 C 603.057 223.360, 600.589 219.979, 596.530 218.015 C 591.526 215.592, 575.302 215.049, 574.448 217.276 M 623.500 217.890 C 621.300 218.905, 618.375 221.033, 617 222.618 L 614.500 225.500 617 223.363 C 626.111 215.575, 638.564 214.872, 647.676 221.633 C 652.082 224.902, 655.387 233.804, 654.629 240.365 C 653.710 248.321, 650.528 253.648, 644.640 257.088 C 640.006 259.796, 638.792 260.061, 632.313 259.779 C 626.239 259.516, 624.458 259.003, 620.813 256.465 C 614.685 252.199, 612.486 247.280, 612.559 238 C 612.592 233.875, 613.207 229.375, 613.926 228 C 615.162 225.638, 615.138 225.592, 613.490 227.163 C 610.909 229.624, 610.227 241.688, 612.354 247.253 C 615.696 255.998, 623.232 260.940, 633.283 260.978 C 643.324 261.016, 652.601 254.699, 654.956 246.219 C 658.230 234.431, 653.607 222.893, 643.685 218.090 C 638.148 215.409, 629.070 215.319, 623.500 217.890 M 674.488 217.019 C 674.109 217.632, 674.070 218.403, 674.400 218.733 C 674.730 219.063, 675 218.808, 675 218.167 C 675 217.434, 676.851 217, 679.974 217 C 685.766 217, 685.687 216.894, 690.973 231.782 C 692.786 236.888, 694.447 240.886, 694.665 240.669 C 694.883 240.451, 693.131 234.924, 690.773 228.386 L 686.484 216.500 680.830 216.203 C 677.442 216.025, 674.901 216.352, 674.488 217.019 M 708.667 216.667 C 708.300 217.033, 708 227.158, 708 239.167 L 708 261 713 261 L 718 261 718 251.417 C 718 244.285, 718.314 241.938, 719.228 242.243 C 719.904 242.468, 722.871 246.780, 725.821 251.826 L 731.185 261 736.593 261 C 739.567 261, 741.999 260.663, 741.998 260.250 C 741.997 259.837, 739.296 255.450, 735.995 250.500 C 730.488 242.239, 730.139 241.398, 731.747 240.253 C 735.821 237.355, 737.991 234.655, 737.864 232.645 C 737.729 230.529, 737.722 230.530, 737.299 232.716 C 736.875 234.903, 731.715 240, 729.923 240 C 728.019 240, 729.168 242.443, 735.027 250.851 L 741.054 259.500 737.422 259.817 C 735.424 259.991, 733.216 259.913, 732.514 259.644 C 731.813 259.375, 728.901 255.070, 726.044 250.077 C 722.328 243.584, 720.302 241, 718.925 241 C 717.160 241, 717 241.790, 717 250.500 L 717 260 713 260 L 709 260 709 238.500 L 709 217 716.750 217.024 C 730.471 217.066, 735.380 219.273, 736.999 226.129 C 737.699 229.092, 737.808 229.184, 737.898 226.885 C 738.030 223.511, 734.559 219.132, 730.364 217.379 C 726.987 215.968, 709.925 215.408, 708.667 216.667 M 748.750 216.561 C 748.337 216.986, 748 227.158, 748 239.167 L 748 261 757.750 260.900 C 763.112 260.845, 768.625 260.481, 770 260.090 C 771.375 259.700, 767.203 259.577, 760.730 259.817 L 748.959 260.253 749.230 238.877 L 749.500 217.500 759 217.507 C 770.930 217.516, 776.951 219.563, 780.527 224.825 C 781.887 226.827, 783 227.944, 783 227.309 C 783 225.436, 778.014 220.060, 774.631 218.287 C 771.267 216.523, 750.155 215.115, 748.750 216.561 M 204 219.448 C 204 221.696, 204.429 221.920, 209.250 222.198 L 214.500 222.500 214.772 241.250 L 215.044 260 218.022 260 L 221 260 221 241 L 221 222 226.500 222 C 231.700 222, 232 221.864, 232 219.500 L 232 217 218 217 L 204 217 204 219.448 M 289 238.500 L 289 260 301 260 L 313 260 313 257.500 C 313 255.028, 312.903 255, 304.454 255 L 295.909 255 296.204 248.250 L 296.500 241.500 303.750 241.206 C 310.702 240.924, 311 240.812, 311 238.456 C 311 236.065, 310.800 236, 303.454 236 L 295.909 236 296.204 229.250 L 296.500 222.500 304.750 222.210 C 312.768 221.927, 313 221.850, 313 219.460 L 313 217 301 217 L 289 217 289 238.500 M 324 238.500 L 324 260 327.464 260 L 330.928 260 331.214 250.250 C 331.477 241.288, 331.666 240.476, 333.553 240.206 C 335.711 239.898, 338.681 243.839, 344.512 254.750 C 347.161 259.706, 347.536 260, 351.218 260 C 355.334 260, 355.325 260.060, 351.972 255 C 348.020 249.036, 343 240.999, 343 240.637 C 343 240.420, 344.371 239.675, 346.047 238.980 C 349.752 237.446, 352 233.402, 352 228.272 C 352 220.024, 347.051 217, 333.550 217 L 324 217 324 238.500 M 528 238.500 L 528 260 532 260 L 536 260 536 251 L 536 242 545.500 242 L 555 242 555 251 L 555 260 559 260 L 563 260 563 238.500 L 563 217 559 217 L 555 217 555 226 L 555 235 545.500 235 L 536 235 536 226 L 536 217 532 217 L 528 217 528 238.500 M 106.948 233.573 C 103.975 244.204, 102.356 248.586, 101.863 247.335 C 101.352 246.037, 101.124 245.939, 101.086 247 C 101.014 248.964, 102.611 251.458, 103.236 250.357 C 103.965 249.072, 107.587 236.606, 109.984 227.134 C 113.621 212.763, 111.522 217.216, 106.948 233.573 M 331 229 L 331 236 335.750 235.825 L 340.500 235.651 336.250 235.268 L 332 234.885 332 228.997 L 332 223.110 336.750 222.735 L 341.500 222.360 336.250 222.180 L 331 222 331 229 M 343.250 224.683 C 344.212 225.769, 345 227.712, 345 229 C 345 230.288, 344.212 232.231, 343.250 233.317 C 341.875 234.869, 341.822 235.190, 343 234.814 C 343.825 234.552, 344.924 233.136, 345.443 231.668 C 346.558 228.514, 345.228 223.895, 343 223.186 C 341.822 222.810, 341.875 223.131, 343.250 224.683 M 497.107 224.884 C 495.294 226.278, 494.864 227.322, 495.333 229.191 C 495.915 231.510, 499.620 234.048, 502.297 233.961 C 502.959 233.939, 502.031 233.283, 500.235 232.503 C 498.439 231.722, 496.697 230.373, 496.363 229.505 C 495.497 227.246, 498.672 224.179, 502.355 223.716 L 505.500 223.320 502.500 223.182 C 500.850 223.106, 498.423 223.872, 497.107 224.884 M 407.437 225.303 C 407.162 226.019, 407.064 232.432, 407.219 239.553 L 407.500 252.500 411 252.833 C 416.025 253.310, 421.747 251.316, 423.640 248.427 C 424.537 247.058, 425.026 245.693, 424.727 245.393 C 424.427 245.094, 423.900 245.741, 423.554 246.831 C 422.830 249.110, 416.359 252, 411.980 252 L 409 252 409 238.563 L 409 225.127 412.250 224.723 C 415.424 224.330, 415.411 224.316, 411.719 224.160 C 409.408 224.062, 407.743 224.507, 407.437 225.303 M 583 229.500 L 583 235 587.250 234.968 C 592.350 234.930, 595 233.161, 595 229.795 C 595 226.191, 592.039 224, 587.171 224 L 583 224 583 229.500 M 627.500 225.535 C 622.180 228.235, 620.010 231.846, 620.009 238 C 620.007 247.044, 625.247 253.002, 633.200 252.998 C 641.005 252.995, 646.995 246.766, 646.998 238.651 C 647 233.940, 644.461 228.317, 641.654 226.815 C 639.886 225.869, 639.976 226.183, 642.245 228.879 C 649.188 237.130, 645.417 250.084, 635.609 251.676 C 624.929 253.409, 617.559 242.054, 622.545 231.546 C 624.277 227.896, 627.140 226.044, 632.719 224.963 C 636.193 224.289, 636.256 224.221, 633.500 224.121 C 631.850 224.061, 629.150 224.698, 627.500 225.535 M 717 229.500 L 717 235 721.277 235 C 723.630 235, 726.555 234.299, 727.777 233.443 C 730.438 231.580, 730.678 227.758, 728.250 225.921 C 726.761 224.794, 726.687 224.806, 727.750 225.998 C 729.621 228.096, 729.258 231.792, 727.066 232.965 C 726.002 233.534, 723.527 234, 721.566 234 C 718.013 234, 718 233.984, 718 229.557 L 718 225.115 722.250 224.732 L 726.500 224.349 721.750 224.175 L 717 224 717 229.500 M 757 238.620 L 757 253.240 762.963 252.809 C 769.613 252.328, 772.422 250.517, 774.638 245.282 C 778.052 237.215, 774.053 225.039, 768 225.072 C 767.175 225.076, 767.732 225.748, 769.237 226.565 C 774.660 229.507, 776.622 238.182, 773.536 245.568 C 771.854 249.593, 766.702 252.297, 761.649 251.806 L 758.500 251.500 758.221 238.312 L 757.943 225.124 761.721 224.730 L 765.500 224.336 761.250 224.168 L 757 224 757 238.620 M 418.500 225.945 C 422.633 227.637, 424.479 230.971, 425.093 237.852 L 425.685 244.500 425.843 238.700 C 426.062 230.599, 422.667 224.830, 417.816 225.063 C 417.092 225.098, 417.400 225.495, 418.500 225.945 M 459.654 226.458 C 459.269 227.464, 459.189 228.522, 459.476 228.810 C 459.764 229.098, 460.022 228.696, 460.049 227.917 C 460.087 226.805, 466 241.488, 466 242.694 C 466 242.862, 463.525 243, 460.500 243 C 457.475 243, 455 242.845, 455 242.657 C 455 242.468, 455.901 239.694, 457.003 236.492 C 458.104 233.291, 458.829 230.495, 458.613 230.280 C 458.218 229.885, 454 241.694, 454 243.194 C 454 243.637, 456.925 244, 460.500 244 C 464.801 244, 467 243.604, 467 242.828 C 467 241.847, 464.688 235.441, 461.131 226.565 C 460.392 224.722, 460.323 224.717, 459.654 226.458 M 584 229.500 L 584 234 587.800 234 C 592.071 234, 594 232.600, 594 229.500 C 594 226.400, 592.071 225, 587.800 225 L 584 225 584 229.500 M 180.064 226.559 C 180.029 227.141, 181.345 231.303, 182.989 235.809 L 185.979 244 179.489 244 C 175.920 244, 173 243.784, 173 243.521 C 173 243.258, 174.152 239.610, 175.560 235.415 C 176.969 231.220, 177.930 227.597, 177.698 227.364 C 177.465 227.131, 175.934 230.775, 174.295 235.461 C 172.656 240.148, 171.544 244.211, 171.824 244.491 C 172.104 244.771, 175.633 245, 179.667 245 C 184.901 245, 186.982 244.642, 186.936 243.750 C 186.848 242.021, 180.143 225.247, 180.064 226.559 M 469.030 226.035 C 468.987 226.800, 472.639 237.086, 476.474 247 C 481.807 260.783, 481.766 260, 477.151 260 C 473.352 260, 473.101 259.802, 471.750 255.750 L 470.333 251.500 460.430 251.500 C 451.294 251.500, 450.504 251.655, 450.227 253.500 C 449.952 255.328, 450.020 255.350, 451.013 253.750 C 451.913 252.300, 453.596 252, 460.831 252 L 469.562 252 471.031 256.250 C 472.463 260.392, 472.624 260.508, 477.373 260.810 C 482.213 261.117, 482.242 261.101, 481.573 258.434 C 480.016 252.231, 469.139 224.133, 469.030 226.035 M 678.398 229.750 C 676.613 233.859, 674 241.826, 674 243.159 C 674 243.622, 676.925 244, 680.500 244 C 684.075 244, 687 243.637, 687 243.194 C 687 241.694, 682.782 229.885, 682.387 230.280 C 682.171 230.495, 682.896 233.291, 683.997 236.492 C 685.099 239.694, 686 242.468, 686 242.657 C 686 242.845, 683.565 243, 680.590 243 L 675.179 243 677.794 235.022 C 679.406 230.107, 680.709 227.516, 681.190 228.272 C 681.734 229.130, 681.974 228.972, 681.985 227.750 C 682.011 224.760, 680.104 225.823, 678.398 229.750 M 666.094 239.594 C 663.813 246.021, 662.129 251.463, 662.353 251.686 C 662.576 251.910, 664.625 246.834, 666.906 240.406 C 669.187 233.979, 670.871 228.537, 670.647 228.314 C 670.424 228.090, 668.375 233.166, 666.094 239.594 M 69.088 229.500 C 68.862 231.340, 74.431 251, 75.178 251 C 75.916 251, 80.092 238.073, 79.896 236.392 C 79.839 235.901, 78.779 238.650, 77.540 242.500 L 75.288 249.500 74.097 245 C 72.007 237.106, 69.215 228.466, 69.088 229.500 M 783.670 232.500 C 784.428 237.443, 785.005 238.285, 784.985 234.417 C 784.976 232.813, 784.539 230.825, 784.013 230 C 783.362 228.979, 783.252 229.776, 783.670 232.500 M 84.085 243.750 C 81.746 251.313, 79.659 258.063, 79.448 258.750 C 79.216 259.501, 77.314 260, 74.680 260 L 70.297 260 68.475 253.270 C 67.473 249.568, 66.513 246.981, 66.341 247.520 C 66.169 248.059, 66.834 251.200, 67.819 254.500 L 69.610 260.500 74.707 260.799 L 79.805 261.098 83.372 249.799 C 85.334 243.584, 87.227 237.262, 87.578 235.750 C 87.929 234.238, 88.569 233, 89 233 C 89.431 233, 90.081 234.238, 90.444 235.750 C 90.808 237.262, 92.672 243.563, 94.587 249.750 L 98.069 261 103.059 261 C 108.515 261, 109.113 260.342, 110.321 253 C 110.708 250.654, 110.342 251.231, 109.212 254.750 C 107.528 259.994, 107.521 260, 103.282 260 L 99.038 260 94.269 245 C 91.646 236.750, 89.239 230, 88.919 230 C 88.599 230, 86.424 236.188, 84.085 243.750 M 602.079 231.250 C 602.036 232.213, 601.032 233.968, 599.848 235.152 C 597.774 237.226, 597.763 237.353, 599.539 238.652 C 600.553 239.393, 601.768 240, 602.239 240 C 602.711 240, 603.732 241.463, 604.509 243.250 C 605.393 245.283, 605.936 245.816, 605.961 244.673 C 605.982 243.668, 604.657 241.504, 603.017 239.863 C 600.176 237.022, 600.108 236.764, 601.611 234.472 C 602.478 233.147, 602.956 231.487, 602.673 230.782 C 602.350 229.978, 602.128 230.152, 602.079 231.250 M 509.563 236.917 C 516.770 240.503, 518.472 243.124, 517.750 249.527 C 517.393 252.696, 517.552 253.848, 518.249 253.151 C 519.843 251.557, 519.453 244.340, 517.622 241.545 C 515.966 239.019, 510.677 235.848, 506 234.578 C 504.625 234.204, 506.229 235.257, 509.563 236.917 M 142.750 235.719 C 149.682 236.071, 150 236.195, 150 238.544 C 150 240.918, 149.767 241, 143 241 C 138.812 241, 136 241.419, 136 242.042 C 136 242.700, 138.855 242.977, 143.750 242.792 L 151.500 242.500 151.500 239 L 151.500 235.500 143.500 235.425 L 135.500 235.351 142.750 235.719 M 166.531 236.707 C 165.026 240.479, 158 260.189, 158 260.641 C 158 261.767, 166.367 260.389, 166.597 259.225 C 166.736 258.524, 166.621 258.411, 166.342 258.975 C 166.062 259.539, 164.302 260, 162.431 260 L 159.029 260 161.119 254.750 C 163.876 247.825, 167.896 235.577, 167.533 235.207 C 167.376 235.046, 166.925 235.721, 166.531 236.707 M 443.120 247.519 C 440.854 253.905, 439 259.550, 439 260.065 C 439 261.171, 447.670 261.343, 448.346 260.250 C 448.600 259.837, 446.827 259.658, 444.405 259.851 C 441.982 260.044, 440 260.007, 440 259.769 C 440 259.531, 441.814 254.250, 444.032 248.033 C 446.249 241.817, 447.879 236.545, 447.652 236.319 C 447.426 236.093, 445.387 241.132, 443.120 247.519 M 192.005 239.583 C 192.008 240.088, 193.583 244.724, 195.505 249.886 C 197.427 255.048, 199 259.409, 199 259.576 C 199 259.743, 197.313 260.056, 195.250 260.272 L 191.500 260.664 195.858 260.832 C 200.133 260.997, 200.204 260.947, 199.555 258.250 C 198.833 255.253, 193.049 239.758, 192.400 239.083 C 192.180 238.854, 192.002 239.079, 192.005 239.583 M 583 247 L 583 253 588.277 253 C 594.475 253, 598 250.985, 598 247.443 C 598 243.226, 594.718 241, 588.500 241 L 583 241 583 247 M 584 247 L 584 252 588.845 252 C 593.909 252, 597 250.002, 597 246.728 C 597 244.192, 592.957 242, 588.277 242 L 584 242 584 247 M 695.195 243 C 695.478 243.825, 696.505 246.975, 697.477 250 C 698.450 253.025, 699.641 255.928, 700.123 256.450 C 702.123 258.616, 700.943 260, 697.095 260 C 693.378 260, 693.125 259.795, 691.845 255.750 L 690.500 251.500 680.583 251.500 L 670.667 251.500 669.250 255.750 C 667.912 259.764, 667.621 260, 664 260 C 661.869 260, 659.943 259.445, 659.662 258.750 C 659.369 258.023, 659.125 258.256, 659.079 259.305 C 659.012 260.843, 659.703 261.064, 663.750 260.805 C 668.361 260.509, 668.543 260.375, 669.981 256.216 L 671.462 251.931 680.481 252.216 L 689.500 252.500 690.969 256.750 C 692.422 260.952, 692.492 261, 697.219 261 C 700.379 261, 701.999 260.576, 701.996 259.750 C 701.992 258.096, 696.327 242.972, 695.403 242.145 C 695.006 241.790, 694.912 242.175, 695.195 243 M 433.636 246.149 C 432.820 250.470, 429.857 254.506, 425.589 257.109 C 423.890 258.145, 423.061 258.994, 423.747 258.996 C 427.722 259.008, 436.012 247.508, 434.743 243.741 C 434.513 243.059, 434.015 244.142, 433.636 246.149 M 485.667 247.667 C 484.208 249.125, 485.151 252.130, 488.040 255.234 L 491.080 258.500 488.540 254.610 C 485.412 249.820, 485.346 248.265, 488.250 247.706 C 490.337 247.304, 490.349 247.262, 488.417 247.136 C 487.271 247.061, 486.033 247.300, 485.667 247.667 M 782 249.728 C 782 251.060, 777.161 256.262, 774.500 257.791 C 773.400 258.422, 773.028 258.953, 773.673 258.970 C 776.431 259.041, 784.054 250.721, 782.581 249.248 C 782.261 248.928, 782 249.144, 782 249.728 M 168.999 250.715 C 168.999 251.147, 173.133 251.402, 178.186 251.283 C 184.226 251.141, 187.880 251.483, 188.850 252.283 C 190.045 253.269, 190.232 253.216, 189.831 252 C 189.444 250.824, 187.143 250.439, 179.169 250.215 C 173.576 250.058, 169 250.283, 168.999 250.715 M 510 259.144 C 508.625 259.704, 504.469 259.998, 500.764 259.799 C 496.491 259.569, 494.609 259.761, 495.617 260.325 C 497.827 261.562, 510.698 260.702, 512.182 259.218 C 513.610 257.790, 513.349 257.781, 510 259.144 M 480.635 283.073 C 477.994 285.150, 477.283 288.320, 478.889 290.854 C 479.443 291.729, 479.703 290.846, 479.623 288.354 C 479.513 284.899, 479.862 284.319, 483 282.752 C 484.925 281.790, 485.773 281.002, 484.885 281.002 C 483.997 281.001, 482.084 281.933, 480.635 283.073 M 316.212 292.750 L 316 304 318.500 304 C 320.801 304, 321 303.637, 321 299.441 C 321 296.215, 321.342 295.093, 322.170 295.605 C 322.968 296.098, 323.127 295.773, 322.670 294.582 C 322.301 293.622, 322 292.648, 322 292.418 C 322 292.188, 321.550 292, 321 292 C 320.450 292, 320 294.475, 320 297.500 C 320 301.666, 319.644 303, 318.534 303 C 317.356 303, 317.004 300.882, 316.746 292.250 L 316.425 281.500 316.212 292.750 M 339 292.430 C 339 302.452, 338.912 302.878, 336.750 303.294 C 334.821 303.666, 334.892 303.747, 337.250 303.864 L 340 304 340 293 C 340 286.950, 339.775 282, 339.500 282 C 339.225 282, 339 286.694, 339 292.430 M 370.452 285.093 C 369.572 286.794, 369.098 288.431, 369.398 288.732 C 369.698 289.032, 370.420 288.025, 371.002 286.495 C 371.584 284.964, 372.298 283.327, 372.589 282.856 C 372.880 282.385, 372.878 282, 372.585 282 C 372.291 282, 371.332 283.392, 370.452 285.093 M 409.212 292.750 C 409.003 303.843, 409.031 303.998, 411.250 303.884 C 412.890 303.799, 413.035 303.646, 411.783 303.317 C 410.323 302.933, 410.018 301.272, 409.746 292.183 L 409.425 281.500 409.212 292.750 M 419 283.101 C 420.375 283.637, 422.063 284.820, 422.750 285.729 C 423.438 286.638, 424 286.872, 424 286.248 C 424 284.781, 420.004 281.981, 418.027 282.063 C 417.187 282.098, 417.625 282.565, 419 283.101 M 449.212 292.820 C 449.002 304.039, 449.020 304.136, 451.250 303.820 C 453.416 303.512, 453.502 303.110, 453.551 293 L 453.601 282.500 453.267 292.750 C 453.003 300.824, 452.628 303, 451.500 303 C 450.366 303, 450.001 300.764, 449.746 292.250 L 449.425 281.500 449.212 292.820 M 488.767 283.489 C 490.013 284.395, 490.761 285.578, 490.428 286.117 C 490.043 286.739, 489.327 286.686, 488.466 285.972 C 487.720 285.353, 486.073 284.994, 484.805 285.173 C 481.380 285.659, 481.806 289.150, 485.500 290.869 C 489.935 292.934, 492 295.040, 492 297.500 C 492 300.471, 489.222 302.757, 485 303.262 L 481.500 303.680 485.250 303.840 C 495.071 304.259, 495.452 293.767, 485.750 290.091 C 482.845 288.991, 481.942 286, 484.514 286 C 485.346 286, 486.910 286.551, 487.989 287.225 C 489.542 288.195, 490.211 288.189, 491.203 287.197 C 492.790 285.610, 491.134 282.648, 488.393 282.170 C 486.769 281.888, 486.822 282.075, 488.767 283.489 M 515.116 283.750 C 515.026 285.505, 515.541 286, 517.461 286 C 519.866 286, 519.929 286.199, 520.211 294.750 C 520.481 302.912, 520.648 303.521, 522.710 303.814 C 524.829 304.116, 524.932 303.764, 525.210 295.314 C 525.499 286.524, 525.507 286.499, 528.250 286.184 C 530.359 285.941, 530.973 285.358, 530.884 283.684 C 530.799 282.087, 530.648 281.954, 530.322 283.190 C 530.074 284.129, 528.683 285.017, 527.188 285.190 C 524.525 285.497, 524.497 285.580, 524.211 294.250 C 524.052 299.063, 523.507 303, 523 303 C 522.493 303, 521.948 299.063, 521.789 294.250 C 521.503 285.580, 521.475 285.497, 518.812 285.190 C 517.317 285.017, 515.926 284.129, 515.678 283.190 C 515.362 281.991, 515.198 282.154, 515.116 283.750 M 330.464 290.626 L 327.844 296.500 325.467 292 C 324.160 289.525, 323.070 287.825, 323.045 288.223 C 322.968 289.454, 327.359 298, 328.069 298 C 328.962 298, 334.197 285.864, 333.573 285.240 C 333.304 284.971, 331.905 287.395, 330.464 290.626 M 413 285.861 C 413 286.335, 414.040 286.524, 415.311 286.281 C 416.599 286.035, 418.155 286.482, 418.828 287.293 C 420.730 289.584, 419.158 291.982, 415.643 292.150 C 412.536 292.298, 412.533 292.305, 415.310 292.722 C 420.340 293.478, 423.260 288.280, 419.066 286.035 C 416.720 284.780, 413 284.673, 413 285.861 M 371.750 291.264 C 370.788 293.605, 370 295.854, 370 296.261 C 370 296.667, 371.800 297, 374 297 C 376.848 297, 378 296.578, 378 295.534 C 378 293.783, 374.870 286.998, 374.065 287.004 C 373.754 287.006, 372.712 288.923, 371.750 291.264 M 372.659 291.693 C 370.883 295.128, 371.289 296, 374.667 296 C 377.296 296, 377.552 294.624, 375.583 291.070 L 374.237 288.641 372.659 291.693 M 365.673 295.802 C 364.203 298.986, 363 302.133, 363 302.796 C 363 304.747, 366.838 304.172, 367.973 302.050 C 368.780 300.542, 370.321 300.017, 374.759 299.739 L 380.500 299.378 374.317 299.189 C 368.922 299.024, 368.054 299.255, 367.500 301 C 367.151 302.100, 366.221 303, 365.433 303 C 363.601 303, 363.559 303.245, 366.542 296.500 C 367.941 293.338, 368.918 290.585, 368.715 290.382 C 368.512 290.179, 367.143 292.617, 365.673 295.802 M 331.721 297.147 C 330.193 300.366, 328.335 303, 327.592 303 C 326.850 303, 325.677 301.636, 324.987 299.968 C 324.296 298.300, 323.533 297.133, 323.292 297.375 C 323.050 297.617, 323.572 299.206, 324.452 300.907 C 326.997 305.829, 329.582 305.002, 332.536 298.322 C 335.901 290.713, 335.233 289.750, 331.721 297.147 M 421.701 293.601 C 419.942 295.953, 419.961 296.082, 422.570 299.503 C 426.436 304.571, 423.221 304.102, 419.120 299 C 416.112 295.257, 413 293.731, 413 296 C 413 296.550, 413.863 297, 414.918 297 C 416.032 297, 417.744 298.468, 419 300.500 C 420.507 302.939, 421.896 304, 423.582 304 C 426.584 304, 426.581 303.748, 423.524 299.250 C 421.216 295.854, 421.159 295.482, 422.684 293.797 C 423.584 292.802, 424.136 291.810, 423.911 291.592 C 423.685 291.374, 422.691 292.278, 421.701 293.601 M 481 292.484 C 481 292.753, 482.575 293.631, 484.500 294.436 C 488.080 295.931, 489.146 298.623, 486.552 299.619 C 485.755 299.924, 483.735 299.366, 482.062 298.377 C 479.667 296.963, 478.760 296.840, 477.799 297.801 C 476.837 298.763, 477.093 299.498, 479.002 301.261 C 481.271 303.357, 481.312 303.363, 479.648 301.349 C 477.250 298.449, 479.056 297.551, 482.877 299.744 C 485.790 301.416, 486.013 301.416, 487.699 299.730 C 489.050 298.378, 489.215 297.564, 488.399 296.270 C 487.400 294.687, 481 291.412, 481 292.484 M 381.081 294.500 C 381.075 295.050, 381.714 296.625, 382.500 298 C 383.286 299.375, 383.945 301.063, 383.965 301.750 C 384.007 303.250, 381.379 303.429, 380.658 301.975 C 380.379 301.411, 380.266 301.524, 380.408 302.225 C 380.718 303.759, 383.886 304.527, 385.024 303.344 C 385.471 302.880, 384.768 300.475, 383.463 298 C 382.158 295.525, 381.086 293.950, 381.081 294.500" stroke="none" fill="#c0ebdf" fill-rule="evenodd"/><path d="M 406 67 L 406 72 411 72 L 416 72 416 67 L 416 62 411 62 L 406 62 406 67 M 380 75.500 L 376.571 79.038 380.071 82.538 L 383.571 86.038 387 82.500 L 390.429 78.962 386.929 75.462 L 383.429 71.962 380 75.500 M 435 75.500 L 431.571 79.038 435.071 82.538 L 438.571 86.038 442 82.500 L 445.429 78.962 441.929 75.462 L 438.429 71.962 435 75.500 M 399.399 81.584 C 389.220 86.953, 384.952 93.400, 384.226 104.505 C 383.904 109.442, 384.224 112.600, 385.311 115.203 L 386.854 118.895 382.627 121.373 C 373.627 126.647, 370.157 140.300, 375.327 150.093 C 378.830 156.729, 384.577 160.315, 392.521 160.820 L 399 161.233 399 156.116 L 399 151 394.904 151 C 383.767 151, 378.633 139.167, 386.400 131.400 C 389.281 128.519, 390.502 128, 394.400 128 C 398.923 128, 399 127.945, 399.002 124.750 C 399.005 117.227, 406.082 110.260, 412.486 111.477 C 414.128 111.789, 417.217 113.447, 419.349 115.160 L 423.227 118.276 427.090 113.756 C 436.029 103.298, 451.808 103.184, 460.875 113.510 C 464.513 117.654, 467 122.712, 467 125.968 C 467 127.747, 467.640 128, 472.128 128 L 477.256 128 476.581 123.750 C 475.516 117.041, 471.734 109.900, 466.540 104.790 C 460.507 98.855, 452.011 95.736, 442.895 96.108 L 436.731 96.359 433.431 91.471 C 427.443 82.601, 420.676 79.016, 409.899 79.006 C 405.799 79.001, 402.985 79.692, 399.399 81.584 M 404.684 90.449 C 397.879 92.876, 394 97.984, 394 104.518 L 394 108.136 396.750 106.182 C 403.849 101.139, 411.114 99.880, 418.308 102.446 C 421.832 103.703, 422.299 103.644, 424.565 101.652 L 427.014 99.500 424.337 96.125 C 421.420 92.449, 414.963 89.031, 411 89.066 C 409.625 89.078, 406.783 89.700, 404.684 90.449 M 367 106 L 367 111 372 111 L 377 111 377 106 L 377 101 372 101 L 367 101 367 106 M 431.036 119.742 C 426.809 121.887, 423 127.294, 423 131.148 C 423 133.904, 423.169 134, 428 134 C 431.667 134, 433 133.619, 433 132.571 C 433 130.363, 435.880 128, 438.571 128 C 441.513 128, 445 131.255, 445 134 C 445 135.100, 444.100 136.900, 443 138 C 441.178 139.822, 439.667 140, 426 140 L 411 140 411 145 L 411 150 436.811 150 C 461.405 150, 462.726 150.096, 464.811 152.039 C 469.171 156.100, 466.410 162, 460.150 162 C 457.715 162, 456.687 161.407, 455.818 159.500 C 454.826 157.322, 454.040 157, 449.714 157 L 444.750 157 445.387 160.250 C 447.858 172.869, 466.575 176.385, 474.410 165.701 C 475.965 163.582, 476.468 161.361, 476.482 156.547 C 476.498 150.913, 476.147 149.756, 473.391 146.347 C 469.992 142.145, 465.285 140.203, 458.189 140.077 L 453.877 140 454.489 135.750 C 455.215 130.707, 452.166 123.830, 447.791 120.644 C 444.034 117.908, 435.550 117.451, 431.036 119.742 M 59 217.652 C 59 218.306, 64.173 237.725, 68.216 252.250 L 70.373 260 74.718 260 C 77.322 260, 79.217 259.499, 79.448 258.750 C 86.250 236.652, 88.442 230, 88.919 230 C 89.239 230, 91.646 236.750, 94.269 245 L 99.038 260 103.313 260 C 108.248 260, 107.151 262.452, 114.051 236 C 116.274 227.475, 118.328 219.713, 118.614 218.750 C 119.038 217.324, 118.504 217, 115.727 217 C 112.392 217, 112.290 217.125, 111.039 222.750 C 109.095 231.486, 103.903 249.396, 103.053 250.300 C 102.364 251.032, 99.755 243.545, 93.977 224.250 C 91.960 217.518, 91.607 217, 89.036 217 C 86.409 217, 86.111 217.500, 83.214 226.750 C 81.534 232.113, 79.205 239.762, 78.038 243.750 C 76.870 247.738, 75.584 251, 75.178 251 C 74.516 251, 72.762 244.917, 67.318 223.750 C 65.617 217.136, 65.516 217, 62.291 217 C 60.481 217, 59 217.293, 59 217.652 M 129 238.500 L 129 260 140.750 260 L 152.500 260 152.500 257.500 C 152.500 255.035, 152.383 255, 144.250 255 L 136 255 136 248 L 136 241 143 241 C 149.800 241, 150 240.929, 150 238.500 C 150 236.071, 149.800 236, 143 236 L 136 236 136 229 L 136 222 144.250 222 C 152.383 222, 152.500 221.965, 152.500 219.500 L 152.500 217 140.750 217 L 129 217 129 238.500 M 174.494 218.250 C 174.251 218.938, 172.413 223.775, 170.410 229 C 168.406 234.225, 165.977 240.975, 165.011 244 C 164.044 247.025, 162.303 251.863, 161.141 254.750 L 159.029 260 162.414 260 C 165.573 260, 165.920 259.663, 167.609 254.967 L 169.419 249.935 179.412 250.217 L 189.405 250.500 190.878 255.250 C 192.248 259.669, 192.583 260, 195.676 260 C 199.444 260, 199.381 260.104, 197.899 256.315 C 197.294 254.767, 194.616 247.425, 191.948 240 C 182.853 214.688, 184.132 217, 179.226 217 C 176.698 217, 174.755 217.513, 174.494 218.250 M 204 219.448 C 204 221.696, 204.429 221.920, 209.250 222.198 L 214.500 222.500 214.772 241.250 L 215.044 260 218.022 260 L 221 260 221 241 L 221 222 226.500 222 C 231.700 222, 232 221.864, 232 219.500 L 232 217 218 217 L 204 217 204 219.448 M 241 238.500 L 241 260 244.500 260 L 248 260 248 250.500 L 248 241 258.500 241 L 269 241 269 250.500 L 269 260 272.500 260 L 276 260 276 238.500 L 276 217 272.500 217 L 269 217 269 226.500 L 269 236 258.500 236 L 248 236 248 226.500 L 248 217 244.500 217 L 241 217 241 238.500 M 289 238.500 L 289 260 301 260 L 313 260 313 257.500 C 313 255.028, 312.903 255, 304.454 255 L 295.909 255 296.204 248.250 L 296.500 241.500 303.750 241.206 C 310.702 240.924, 311 240.812, 311 238.456 C 311 236.065, 310.800 236, 303.454 236 L 295.909 236 296.204 229.250 L 296.500 222.500 304.750 222.210 C 312.768 221.927, 313 221.850, 313 219.460 L 313 217 301 217 L 289 217 289 238.500 M 324 238.500 L 324 260 327.464 260 L 330.928 260 331.214 250.250 C 331.477 241.288, 331.666 240.476, 333.553 240.206 C 335.711 239.898, 338.681 243.839, 344.512 254.750 C 347.161 259.706, 347.536 260, 351.218 260 C 355.334 260, 355.325 260.060, 351.972 255 C 348.020 249.036, 343 240.999, 343 240.637 C 343 240.420, 344.371 239.675, 346.047 238.980 C 349.752 237.446, 352 233.402, 352 228.272 C 352 220.024, 347.051 217, 333.550 217 L 324 217 324 238.500 M 400 238.366 L 400 260 408.750 259.994 C 413.563 259.991, 419.200 259.517, 421.277 258.940 C 430.962 256.250, 436.268 246.168, 434.249 234.290 C 432.190 222.181, 426.198 218.003, 409.750 217.205 L 400 216.733 400 238.366 M 455.689 217.699 C 454.313 219.940, 440 258.281, 440 259.725 C 440 259.940, 441.900 259.977, 444.223 259.807 C 448.213 259.517, 448.508 259.279, 449.564 255.500 L 450.680 251.500 460.507 251.500 L 470.333 251.500 471.750 255.750 C 473.101 259.802, 473.352 260, 477.151 260 C 481.792 260, 481.879 261.076, 475.979 245.500 C 473.895 240, 470.673 231.450, 468.819 226.500 L 465.447 217.500 460.814 217.199 C 458.266 217.033, 455.960 217.258, 455.689 217.699 M 494.500 217.954 C 490.995 219.404, 487.853 223.680, 487.308 227.741 C 486.855 231.118, 487.221 232.182, 489.876 235.206 C 491.961 237.581, 494.528 239.153, 497.736 240.022 C 503.294 241.526, 508.191 243.812, 509.235 245.390 C 510.665 247.551, 509.971 250.907, 507.777 252.443 C 504.006 255.085, 500.118 254.405, 496.389 250.451 C 493.406 247.288, 492.658 246.974, 489.521 247.562 C 485.462 248.324, 485.242 249.244, 488.026 253.810 C 490.576 257.994, 495.341 260, 502.718 259.998 C 512.969 259.996, 517.955 255.877, 517.985 247.386 C 518.008 240.903, 515.504 239.002, 498.737 232.773 C 494.803 231.312, 493.973 227.294, 497.107 224.884 C 500.713 222.112, 504.667 222.513, 508.161 226.007 C 510.783 228.629, 511.573 228.906, 514.334 228.173 C 516.700 227.544, 517.414 226.848, 517.160 225.416 C 516.673 222.675, 514.003 219.937, 510.282 218.362 C 506.766 216.874, 497.679 216.639, 494.500 217.954 M 528 238.500 L 528 260 532 260 L 536 260 536 251 L 536 242 545.500 242 L 555 242 555 251 L 555 260 559 260 L 563 260 563 238.500 L 563 217 559 217 L 555 217 555 226 L 555 235 545.500 235 L 536 235 536 226 L 536 217 532 217 L 528 217 528 238.500 M 575 238.470 L 575 260.172 586.430 259.836 C 596.132 259.551, 598.287 259.184, 600.680 257.410 C 607.982 251.998, 607.395 243.169, 599.412 238.344 C 597.623 237.263, 597.609 237.102, 599.205 235.844 C 603.876 232.161, 603.095 223.617, 597.723 219.630 C 595.468 217.956, 593.068 217.493, 584.973 217.168 L 575 216.767 575 238.470 M 622.532 219.773 C 619.799 221.273, 616.566 223.985, 615.347 225.800 C 611.134 232.075, 611.251 245.107, 615.581 251.752 C 616.388 252.990, 618.910 255.235, 621.184 256.741 C 624.529 258.954, 626.676 259.536, 632.410 259.784 C 638.779 260.060, 640.023 259.786, 644.640 257.088 C 659.761 248.254, 657.524 223.637, 641.101 218.138 C 635.120 216.136, 628.021 216.761, 622.532 219.773 M 671.451 227.750 C 669.379 233.662, 665.955 242.935, 663.842 248.356 C 661.729 253.777, 660 258.615, 660 259.106 C 660 259.598, 661.763 260, 663.917 260 C 667.636 260, 667.905 259.785, 669.250 255.750 L 670.667 251.500 680.583 251.500 L 690.500 251.500 691.845 255.750 C 693.125 259.795, 693.378 260, 697.095 260 C 701.120 260, 701.715 259.233, 700.015 256.236 C 699.473 255.281, 696.324 246.936, 693.018 237.691 C 689.712 228.446, 686.540 220.009, 685.969 218.941 C 685.159 217.429, 683.857 217, 680.074 217 L 675.218 217 671.451 227.750 M 709 238.369 L 709 260 713 260 L 717 260 717 250.500 C 717 241.790, 717.160 241, 718.925 241 C 720.302 241, 722.328 243.584, 726.044 250.077 C 728.901 255.070, 731.813 259.375, 732.514 259.644 C 733.216 259.913, 735.424 259.991, 737.422 259.817 L 741.054 259.500 735.027 250.851 C 731.712 246.094, 729 241.737, 729 241.168 C 729 240.600, 729.829 239.872, 730.842 239.550 C 734.696 238.327, 737.321 234.261, 737.251 229.623 C 737.109 220.242, 733.652 217.834, 719.420 217.201 L 709 216.738 709 238.369 M 749.750 217.558 C 749.337 217.984, 749 227.765, 749 239.293 L 749 260.252 760.250 259.810 C 771.874 259.353, 774.517 258.574, 778.729 254.362 C 784.623 248.468, 786.097 235.609, 781.841 227.206 C 778.384 220.381, 772.829 217.828, 760.144 217.234 C 754.840 216.985, 750.163 217.131, 749.750 217.558 M 331 229.019 L 331 236.278 337.208 235.715 C 343.984 235.100, 346 233.561, 346 229 C 346 224.325, 343.868 222.690, 337.134 222.203 L 331 221.760 331 229.019 M 174.846 233.980 C 172.892 239.469, 171.527 244.194, 171.813 244.480 C 172.718 245.385, 187 245.041, 187 244.115 C 187 242.434, 179.728 224, 179.064 224 C 178.699 224, 176.800 228.491, 174.846 233.980 M 407.489 225.168 C 407.186 225.959, 407.064 232.432, 407.219 239.553 L 407.500 252.500 411.656 252.803 C 417.730 253.246, 422.764 250.809, 424.536 246.568 C 427.549 239.357, 425.734 228.534, 421.095 226.051 C 420.058 225.496, 416.697 224.747, 413.626 224.386 C 409.248 223.871, 407.922 224.040, 407.489 225.168 M 583 229.500 L 583 235 587.250 234.968 C 592.350 234.930, 595 233.161, 595 229.795 C 595 226.191, 592.039 224, 587.171 224 L 583 224 583 229.500 M 627.500 225.535 C 622.180 228.235, 620.010 231.846, 620.009 238 C 620.006 249.957, 629.711 256.388, 640 251.248 C 649.535 246.485, 649.264 230.295, 639.576 225.895 C 634.597 223.634, 631.432 223.539, 627.500 225.535 M 717 229.500 L 717 235 721.277 235 C 726.438 235, 730 232.754, 730 229.500 C 730 226.246, 726.438 224, 721.277 224 L 717 224 717 229.500 M 757 238.478 L 757 253.240 762.963 252.809 C 769.613 252.328, 772.422 250.517, 774.638 245.282 C 777.385 238.791, 775.469 229.023, 770.886 226.161 C 769.834 225.504, 766.280 224.685, 762.987 224.341 L 757 223.715 757 238.478 M 457.169 233.347 C 455.426 238.164, 454 242.531, 454 243.052 C 454 243.574, 456.925 244, 460.500 244 C 464.801 244, 467 243.604, 467 242.828 C 467 241.846, 464.655 235.350, 461.122 226.545 C 460.507 225.011, 459.655 226.476, 457.169 233.347 M 678.398 229.750 C 676.613 233.859, 674 241.826, 674 243.159 C 674 243.622, 676.925 244, 680.500 244 C 684.075 244, 687 243.664, 687 243.254 C 687 241.434, 681.425 226.019, 680.763 226.010 C 680.358 226.005, 679.294 227.688, 678.398 229.750 M 583 247 L 583 253 588.277 253 C 594.475 253, 598 250.985, 598 247.443 C 598 243.226, 594.718 241, 588.500 241 L 583 241 583 247 M 317 292.500 C 317 301.167, 317.262 303, 318.500 303 C 319.652 303, 320 301.722, 320 297.500 C 320 294.475, 320.367 292, 320.816 292 C 321.265 292, 322.658 294.475, 323.912 297.500 C 325.165 300.525, 326.804 303, 327.554 303 C 328.303 303, 330.285 300.194, 331.958 296.765 L 335 290.530 335 296.765 C 335 302.333, 335.214 303, 337 303 C 338.873 303, 339 302.333, 339 292.500 C 339 283.048, 338.820 282, 337.197 282 C 335.882 282, 334.507 284.167, 332.123 290 C 330.324 294.400, 328.499 298, 328.069 298 C 327.639 298, 325.664 294.400, 323.681 290 C 318.497 278.496, 317 279.057, 317 292.500 M 370.608 287.250 C 366.842 295.610, 364 302.223, 364 302.627 C 364 304.004, 366.987 302.615, 367.500 301 C 368.040 299.299, 369.013 299, 374 299 C 378.987 299, 379.960 299.299, 380.500 301 C 381.093 302.867, 383.998 303.905, 384.002 302.250 C 384.007 299.883, 375.463 282, 374.327 282 C 373.582 282, 371.909 284.363, 370.608 287.250 M 410 292.500 C 410 301.167, 410.262 303, 411.500 303 C 412.583 303, 413 301.889, 413 299 C 413 296.169, 413.425 295, 414.453 295 C 415.252 295, 417.352 296.800, 419.120 299 C 423.215 304.096, 426.438 304.575, 422.578 299.514 L 419.919 296.028 422.088 293.094 C 426.214 287.514, 421.713 282, 413.032 282 L 410 282 410 292.500 M 450 292.500 C 450 301.167, 450.262 303, 451.500 303 C 452.738 303, 453 301.167, 453 292.500 C 453 283.833, 452.738 282, 451.500 282 C 450.262 282, 450 283.833, 450 292.500 M 481.223 283.557 C 479.026 285.095, 478.340 288.430, 479.765 290.638 C 480.169 291.263, 482.194 292.480, 484.264 293.342 C 488.727 295.201, 489.917 297.512, 487.602 299.826 C 486.041 301.388, 485.731 301.382, 482.877 299.744 C 479.169 297.616, 477.180 298.436, 479.590 301.099 C 481.863 303.611, 488.099 303.653, 490.345 301.171 C 493.683 297.483, 491.994 293.892, 485.500 290.869 C 481.806 289.150, 481.380 285.659, 484.805 285.173 C 486.073 284.994, 487.720 285.353, 488.466 285.972 C 489.327 286.686, 490.043 286.739, 490.428 286.117 C 491.142 284.961, 487.239 282, 485 282 C 484.145 282, 482.445 282.701, 481.223 283.557 M 516 283.434 C 516 284.254, 517.176 285.002, 518.750 285.184 C 521.491 285.499, 521.501 285.529, 521.789 294.250 C 521.948 299.063, 522.493 303, 523 303 C 523.507 303, 524.052 299.063, 524.211 294.250 C 524.499 285.529, 524.509 285.499, 527.250 285.184 C 528.824 285.002, 530 284.254, 530 283.434 C 530 282.325, 528.411 282, 523 282 C 517.589 282, 516 282.325, 516 283.434 M 413 289 C 413 292.714, 413.200 293, 415.800 293 C 419.001 293, 421 291.399, 421 288.835 C 421 286.840, 418.152 285, 415.066 285 C 413.322 285, 413 285.624, 413 289 M 371.750 291.264 C 370.788 293.605, 370 295.854, 370 296.261 C 370 296.667, 371.800 297, 374 297 C 376.848 297, 378 296.578, 378 295.534 C 378 293.783, 374.870 286.998, 374.065 287.004 C 373.754 287.006, 372.712 288.923, 371.750 291.264" stroke="none" fill="#000" fill-rule="evenodd"/></svg>