<svg xmlns="http://www.w3.org/2000/svg" width="795" height="314" viewBox="0 0 795 314" version="1.1"><path d="M 400 83 L 400 89 406 89 L 412 89 412 83 L 412 77 406 77 L 400 77 400 83 M 401 83 L 401 88 406 88 L 411 88 411 83 L 411 78 406 78 L 401 78 401 83 M 373.484 91.016 L 369.562 95.033 373.781 99.252 L 378 103.471 382.131 99.340 L 386.262 95.209 382.964 91.104 C 381.150 88.847, 379.157 87, 378.536 87 C 377.914 87, 375.641 88.807, 373.484 91.016 M 428.607 90.891 L 424.808 94.781 428.520 98.891 C 430.562 101.151, 432.579 103, 433.002 103 C 434.166 103, 441 95.715, 441 94.475 C 441 93.131, 434.771 87, 433.405 87 C 432.856 87, 430.696 88.751, 428.607 90.891 M 375 91.500 L 371.571 95.038 375.071 98.538 L 378.571 102.038 382 98.500 L 385.429 94.962 381.929 91.462 L 378.429 87.962 375 91.500 M 430 91.500 L 426.571 95.038 430.071 98.538 L 433.571 102.038 437 98.500 L 440.429 94.962 436.929 91.462 L 433.429 87.962 430 91.500 M 400.500 94.497 C 402.774 95.267, 415.369 95.706, 413.500 94.950 C 412.400 94.505, 408.800 94.144, 405.500 94.149 C 402.200 94.154, 399.950 94.310, 400.500 94.497 M 390.390 98.638 C 382.037 104.303, 378 111.700, 378 121.340 C 378 124.839, 378.515 129.180, 379.145 130.987 C 380.183 133.963, 380.065 134.453, 377.895 136.196 L 375.500 138.120 378.699 136.561 C 381.882 135.009, 381.891 134.984, 380.449 131.533 C 378.173 126.086, 378.601 116.387, 381.377 110.500 C 383.927 105.094, 386.798 102.027, 392.716 98.389 C 394.797 97.109, 396 96.048, 395.390 96.031 C 394.779 96.014, 392.529 97.187, 390.390 98.638 M 420.449 99.174 C 423.087 100.922, 426.683 104.595, 428.449 107.347 L 431.657 112.346 438.336 112.104 C 453.140 111.567, 466.307 120.938, 470.408 134.932 C 472.947 143.592, 472.793 144, 467 144 C 462.472 144, 462 143.786, 462 141.735 C 462 136.058, 454.903 126.824, 448.226 123.813 C 439.095 119.695, 429.223 121.950, 422.416 129.707 L 418.332 134.361 414.402 131.203 C 412.240 129.466, 409.128 127.789, 407.486 127.477 C 401.082 126.260, 394.005 133.227, 394.002 140.750 C 394 143.945, 393.923 144, 389.400 144 C 385.502 144, 384.281 144.519, 381.400 147.400 C 378.652 150.148, 378 151.577, 378 154.853 C 378 162.709, 382.205 167, 389.904 167 L 394 167 394 172.116 L 394 177.233 387.521 176.820 C 375.572 176.060, 368 167.803, 368 155.534 C 368 150.277, 368.509 148.537, 371.502 143.567 C 373.427 140.369, 374.301 138.335, 373.444 139.047 C 372.586 139.758, 370.711 142.344, 369.276 144.793 C 362.861 155.738, 368.440 171.525, 380.500 176.554 C 382.150 177.242, 386.087 178.126, 389.250 178.518 L 395 179.230 395 172.615 L 395 166 389.923 166 C 385.645 166, 384.386 165.540, 381.923 163.077 C 378.728 159.882, 378.055 155.169, 380.139 150.595 C 381.527 147.549, 386.594 145, 391.262 145 C 394.686 145, 394.728 144.947, 395.338 139.792 C 396.166 132.803, 400.191 128.545, 405.972 128.545 C 409.247 128.545, 410.656 129.235, 413.946 132.447 L 417.941 136.348 422.182 131.531 C 424.514 128.881, 428.240 125.887, 430.461 124.878 C 437.912 121.494, 448.083 122.980, 453.869 128.298 C 456.712 130.911, 460.976 139.566, 460.990 142.750 C 460.999 144.837, 461.443 145, 467.127 145 L 473.254 145 472.780 140.067 C 472.142 133.426, 467.644 124.876, 462.020 119.616 C 455.820 113.816, 447.708 110.816, 438.296 110.843 C 431.911 110.860, 431.017 110.630, 430.443 108.821 C 429.541 105.979, 423.213 99.162, 419.875 97.435 C 415.146 94.990, 415.430 95.849, 420.449 99.174 M 395.743 108.529 C 391.280 111.561, 389 115.616, 389 120.518 L 389 124.136 391.767 122.166 C 393.288 121.083, 396.101 119.482, 398.017 118.608 C 400.250 117.590, 400.603 117.233, 399 117.613 C 397.625 117.939, 395.038 119.044, 393.250 120.069 C 390.028 121.917, 390 121.915, 390 119.852 C 390 116.360, 394.013 110.387, 397.859 108.158 C 399.861 106.996, 401.042 106.036, 400.482 106.023 C 399.922 106.010, 397.790 107.138, 395.743 108.529 M 417.085 111.085 L 421.321 115.321 419.068 117.146 C 417.325 118.557, 416.370 118.733, 414.855 117.922 C 413.777 117.345, 412.215 117.014, 411.384 117.187 C 410.553 117.359, 411.516 118.008, 413.523 118.628 C 416.750 119.625, 417.453 119.509, 419.594 117.628 L 422.014 115.500 419.430 112.244 C 418.008 110.453, 415.946 108.506, 414.847 107.918 C 413.748 107.330, 414.755 108.755, 417.085 111.085 M 361 122 L 361 128 367 128 L 373 128 373 122 L 373 116 367 116 L 361 116 361 122 M 362 122 L 362 127 367 127 L 372 127 372 122 L 372 117 367 117 L 362 117 362 122 M 426.500 134.403 C 424.850 135.131, 422.603 136.801, 421.507 138.113 L 419.514 140.500 422.007 138.317 C 433.711 128.066, 452.230 137.596, 449.446 152.438 L 448.777 156 453.139 156.077 C 460.283 156.203, 464.985 158.136, 468.391 162.347 C 471.147 165.756, 471.498 166.913, 471.482 172.547 C 471.450 183.289, 465.662 188.398, 454.253 187.757 C 450.353 187.538, 448.359 187.759, 448.946 188.346 C 450.468 189.868, 460.281 189.423, 463.654 187.679 C 470.485 184.147, 473.833 177.246, 472.725 168.983 C 471.663 161.072, 463.935 155, 454.927 155 L 450.486 155 450.796 150.750 C 451.698 138.394, 438.134 129.267, 426.500 134.403 M 418.035 142.934 C 417.466 143.998, 417.052 146.136, 417.115 147.684 C 417.219 150.223, 417.298 150.152, 417.922 146.966 C 418.303 145.022, 418.953 142.885, 419.366 142.216 C 419.780 141.547, 419.882 141, 419.594 141 C 419.306 141, 418.605 141.870, 418.035 142.934 M 429.571 145.571 C 428.707 146.436, 428.007 147.898, 428.015 148.821 C 428.025 149.969, 428.428 149.709, 429.288 148 C 431.095 144.411, 435.377 144.120, 437.552 147.440 C 439.103 149.807, 439.108 150.187, 437.609 152.474 C 436.016 154.905, 435.720 154.953, 420.744 155.224 L 405.500 155.500 405.200 161.250 L 404.900 167 429.885 167 C 443.627 167, 456.012 167.434, 457.407 167.965 C 460.406 169.105, 461.813 173.315, 459.947 175.564 C 458.045 177.856, 452.732 177.028, 451.513 174.250 C 450.653 172.291, 449.780 172, 444.763 172 C 439.636 172, 439 172.224, 439 174.032 C 439 177.362, 441.548 182.332, 444.621 184.996 L 447.500 187.493 444.814 184.496 C 442.103 181.473, 440 177.078, 440 174.435 C 440 173.386, 441.302 173, 444.839 173 C 449.031 173, 449.831 173.335, 450.818 175.500 C 451.705 177.446, 452.703 178, 455.324 178 C 461.443 178, 464.122 172.054, 459.811 168.039 C 457.726 166.096, 456.405 166, 431.811 166 L 406 166 406 161 L 406 156 420.809 156 C 436.766 156, 438.397 155.550, 439.532 150.837 C 440.777 145.667, 433.384 141.759, 429.571 145.571" stroke="none" fill="#c3ebe2" fill-rule="evenodd"/><path d="M 401 83 L 401 88 406 88 L 411 88 411 83 L 411 78 406 78 L 401 78 401 83 M 375 91.500 L 371.571 95.038 375.071 98.538 L 378.571 102.038 382 98.500 L 385.429 94.962 381.929 91.462 L 378.429 87.962 375 91.500 M 430 91.500 L 426.571 95.038 430.071 98.538 L 433.571 102.038 437 98.500 L 440.429 94.962 436.929 91.462 L 433.429 87.962 430 91.500 M 394.399 97.584 C 387.677 101.129, 384.166 104.613, 381.383 110.500 C 378.600 116.387, 378.171 126.079, 380.451 131.537 L 381.902 135.009 377.963 137.019 C 368.940 141.622, 365.109 156.209, 370.327 166.093 C 373.830 172.729, 379.577 176.315, 387.521 176.820 L 394 177.233 394 172.116 L 394 167 389.904 167 C 382.205 167, 378 162.709, 378 154.853 C 378 151.577, 378.652 150.148, 381.400 147.400 C 384.281 144.519, 385.502 144, 389.400 144 C 393.923 144, 394 143.945, 394.002 140.750 C 394.005 133.227, 401.082 126.260, 407.486 127.477 C 409.128 127.789, 412.240 129.466, 414.402 131.203 L 418.332 134.361 422.416 129.707 C 433.546 117.023, 451.628 119.811, 459.898 135.485 C 461.054 137.677, 462 140.490, 462 141.735 C 462 143.786, 462.472 144, 467 144 C 472.793 144, 472.947 143.592, 470.408 134.932 C 466.307 120.938, 453.140 111.567, 438.336 112.104 L 431.657 112.346 428.496 107.423 C 421.030 95.793, 406.011 91.459, 394.399 97.584 M 400.791 105.988 C 393.782 108.101, 389 113.994, 389 120.518 L 389 124.136 391.750 122.182 C 398.849 117.139, 406.114 115.880, 413.308 118.446 C 416.832 119.703, 417.299 119.644, 419.565 117.652 L 422.014 115.500 419.337 112.125 C 414.815 106.425, 407.439 103.984, 400.791 105.988 M 362 122 L 362 127 367 127 L 372 127 372 122 L 372 117 367 117 L 362 117 362 122 M 426.020 135.752 C 421.798 137.873, 418 143.269, 418 147.148 C 418 149.904, 418.169 150, 423 150 C 426.667 150, 428 149.619, 428 148.571 C 428 147.786, 428.707 146.436, 429.571 145.571 C 433.384 141.759, 440.777 145.667, 439.532 150.837 C 438.397 155.550, 436.766 156, 420.809 156 L 406 156 406 161 L 406 166 431.811 166 C 456.405 166, 457.726 166.096, 459.811 168.039 C 464.171 172.100, 461.410 178, 455.150 178 C 452.715 178, 451.687 177.407, 450.818 175.500 C 449.831 173.335, 449.031 173, 444.839 173 C 439.440 173, 439.019 173.762, 441.371 179.282 C 443.843 185.084, 447.321 187.368, 454.282 187.759 C 465.660 188.398, 471.450 183.277, 471.482 172.547 C 471.498 166.913, 471.147 165.756, 468.391 162.347 C 464.985 158.136, 460.283 156.203, 453.139 156.077 L 448.777 156 449.446 152.438 C 451.822 139.772, 437.840 129.813, 426.020 135.752" stroke="none" fill="#68a8a6" fill-rule="evenodd"/></svg>